<svg xmlns="http://www.w3.org/2000/svg" width="159.79000000000002" height="35" viewBox="0 0 159.79000000000002 35"><rect class="svg__rect" x="0" y="0" width="115.31" height="35" fill="#31C4F3"/><rect class="svg__rect" x="113.31" y="0" width="46.48000000000002" height="35" fill="#389AD5"/><path class="svg__text" d="M15.69 22L14.22 22L14.22 13.47L16.14 13.47L18.60 20.01L21.06 13.47L22.97 13.47L22.97 22L21.49 22L21.49 19.19L21.64 15.43L19.12 22L18.06 22L15.55 15.43L15.69 19.19L15.69 22ZM28.49 22L26.95 22L30.17 13.47L31.50 13.47L34.73 22L33.18 22L32.49 20.01L29.18 20.01L28.49 22ZM30.83 15.28L29.60 18.82L32.07 18.82L30.83 15.28ZM41.14 22L38.69 22L38.69 13.47L41.21 13.47Q42.34 13.47 43.21 13.97Q44.09 14.48 44.57 15.40Q45.05 16.33 45.05 17.52L45.05 17.52L45.05 17.95Q45.05 19.16 44.57 20.08Q44.08 21.00 43.19 21.50Q42.30 22 41.14 22L41.14 22ZM40.17 14.66L40.17 20.82L41.14 20.82Q42.30 20.82 42.93 20.09Q43.55 19.36 43.56 17.99L43.56 17.99L43.56 17.52Q43.56 16.13 42.96 15.40Q42.35 14.66 41.21 14.66L41.21 14.66L40.17 14.66ZM55.09 22L49.51 22L49.51 13.47L55.05 13.47L55.05 14.66L51.00 14.66L51.00 17.02L54.50 17.02L54.50 18.19L51.00 18.19L51.00 20.82L55.09 20.82L55.09 22ZM66.65 22L64.68 13.47L66.15 13.47L67.47 19.88L69.10 13.47L70.34 13.47L71.96 19.89L73.27 13.47L74.74 13.47L72.77 22L71.35 22L69.73 15.77L68.07 22L66.65 22ZM80.38 22L78.90 22L78.90 13.47L80.38 13.47L80.38 22ZM86.87 14.66L84.23 14.66L84.23 13.47L91.00 13.47L91.00 14.66L88.34 14.66L88.34 22L86.87 22L86.87 14.66ZM96.24 22L94.75 22L94.75 13.47L96.24 13.47L96.24 17.02L100.05 17.02L100.05 13.47L101.53 13.47L101.53 22L100.05 22L100.05 18.21L96.24 18.21L96.24 22Z" fill="#FFFFFF"/><path class="svg__text" d="M127.07 17.80L127.07 17.80Q127.07 16.54 127.67 15.54Q128.27 14.55 129.32 13.99Q130.37 13.43 131.69 13.43L131.69 13.43Q132.84 13.43 133.76 13.84Q134.69 14.25 135.30 15.02L135.30 15.02L133.79 16.39Q132.98 15.40 131.81 15.40L131.81 15.40Q131.12 15.40 130.59 15.70Q130.06 16 129.76 16.54Q129.47 17.09 129.47 17.80L129.47 17.80Q129.47 18.51 129.76 19.05Q130.06 19.60 130.59 19.90Q131.12 20.20 131.81 20.20L131.81 20.20Q132.98 20.20 133.79 19.22L133.79 19.22L135.30 20.58Q134.69 21.35 133.77 21.76Q132.84 22.17 131.69 22.17L131.69 22.17Q130.37 22.17 129.32 21.61Q128.27 21.05 127.67 20.05Q127.07 19.06 127.07 17.80ZM140.72 20.21L139.20 20.21L139.20 18.67L140.91 18.67L141.11 16.94L139.60 16.94L139.60 15.39L141.30 15.39L141.53 13.60L143.17 13.60L142.94 15.39L144.41 15.39L144.64 13.60L146.27 13.60L146.04 15.39L147.55 15.39L147.55 16.94L145.85 16.94L145.65 18.67L147.15 18.67L147.15 20.21L145.46 20.21L145.23 22L143.59 22L143.82 20.21L142.35 20.21L142.12 22L140.49 22L140.72 20.21ZM142.74 16.94L142.54 18.67L144.02 18.67L144.22 16.94L142.74 16.94Z" fill="#FFFFFF" x="126.31"/></svg>